<svg width="136px" height="126px" viewBox="0 0 136 126" version="1.1" xmlns="http://www.w3.org/2000/svg" xmlns:xlink="http://www.w3.org/1999/xlink">
    <!-- Generator: Sketch 45.2 (43514) - http://www.bohemiancoding.com/sketch -->
    <desc>Created with Sketch.</desc>
    <defs></defs>
    <g id="Symbols" stroke="none" stroke-width="1" fill="none" fill-rule="evenodd">
        <g id="Artboard" transform="translate(-16.000000, -27.000000)" fill="#FFAF6C">
            <path d="M143.751,47.856 L120.286,47.856 L120.286,40.035 C120.286,36.45 119.011,33.382 116.458,30.829 C113.905,28.276 110.835,27 107.251,27 L60.322,27 C56.737,27 53.668,28.276 51.115,30.829 C48.562,33.382 47.286,36.45 47.286,40.035 L47.286,47.856 L23.821,47.856 C21.649,47.856 19.802,48.616 18.281,50.137 C16.76,51.658 16,53.505 16,55.678 L16,66.106 C16,69.962 17.127,73.846 19.381,77.757 C21.635,81.667 24.676,85.199 28.506,88.348 C32.335,91.498 37.033,94.146 42.601,96.292 C48.169,98.438 54.021,99.646 60.159,99.917 C62.441,102.851 65.02,105.431 67.899,107.657 C69.963,109.503 71.388,111.471 72.176,113.564 C72.963,115.655 73.357,118.085 73.357,120.855 C73.357,123.789 72.529,126.26 70.872,128.268 C69.216,130.279 66.568,131.284 62.929,131.284 C58.855,131.284 55.23,132.52 52.052,134.991 C48.875,137.463 47.286,140.572 47.286,144.32 L47.286,149.534 C47.286,150.295 47.53,150.92 48.019,151.408 C48.508,151.897 49.132,152.141 49.893,152.141 L117.679,152.141 C118.441,152.141 119.064,151.897 119.554,151.408 C120.041,150.92 120.285,150.295 120.285,149.534 L120.285,144.32 C120.285,140.572 118.697,137.464 115.518,134.991 C112.34,132.52 108.715,131.284 104.641,131.284 C101.003,131.284 98.354,130.279 96.699,128.268 C95.043,126.26 94.216,123.789 94.216,120.855 C94.216,118.084 94.609,115.655 95.396,113.564 C96.185,111.471 97.611,109.504 99.673,107.657 C102.552,105.43 105.132,102.85 107.412,99.917 C113.552,99.646 119.403,98.438 124.972,96.292 C130.538,94.147 135.238,91.498 139.066,88.348 C142.896,85.198 145.937,81.667 148.191,77.757 C150.445,73.846 151.572,69.962 151.572,66.106 L151.572,55.678 C151.571,53.506 150.811,51.659 149.29,50.137 C147.77,48.617 145.923,47.856 143.751,47.856 Z M34.128,79.304 C28.995,74.742 26.429,70.342 26.429,66.105 L26.429,58.284 L47.286,58.284 C47.286,69.637 49.295,79.712 53.315,88.511 C45.657,86.936 39.261,83.866 34.128,79.304 L34.128,79.304 Z M141.143,66.106 C141.143,70.343 138.578,74.744 133.445,79.306 C128.311,83.868 121.915,86.937 114.257,88.512 C118.277,79.713 120.286,69.638 120.286,58.285 L141.143,58.285 L141.143,66.106 Z M69.3789062,70.7578125 C64.1990794,70.7578125 60,66.5587331 60,61.3789063 C60,56.1990794 64.1990794,52 69.3789062,52 C74.5587331,52 78.7578125,56.1990794 78.7578125,61.3789063 C78.7578125,66.5587331 74.5587331,70.7578125 69.3789062,70.7578125 Z M99.3789062,70.7578125 C94.1990794,70.7578125 90,66.5587331 90,61.3789063 C90,56.1990794 94.1990794,52 99.3789062,52 C104.558733,52 108.757812,56.1990794 108.757812,61.3789063 C108.757812,66.5587331 104.558733,70.7578125 99.3789062,70.7578125 Z M73,83 L96,83 C97.6568542,83 99,84.3431458 99,86 L99,91 C99,92.6568542 97.6568542,94 96,94 L73,94 C71.3431458,94 70,92.6568542 70,91 L70,86 C70,84.3431458 71.3431458,83 73,83 Z" id="Combined-Shape"></path>
        </g>
    </g>
</svg>
