<?xml version="1.0" encoding="UTF-8"?>
<svg width="103px" height="106px" viewBox="0 0 103 106" version="1.1" xmlns="http://www.w3.org/2000/svg" xmlns:xlink="http://www.w3.org/1999/xlink">
    <title>nadukete_logo</title>
    <g id="Page-1" stroke="none" stroke-width="1" fill="none" fill-rule="evenodd">
        <rect id="Rectangle" stroke="#FFAF6C" fill="#FFAF6C" x="1" y="1" width="101" height="104" rx="8"></rect>
        <path d="M57,29 C62.9930385,33 67.9930385,33 72,29" id="Path" stroke="#FFFFFF" stroke-width="2"></path>
        <path d="M33.0349406,57.9685294 C31.587724,60.1477206 31.7239968,91.5279269 33.0349406,92.6726179 C34.3458844,93.817309 47.3394906,94.4782318 48.6449835,93.5754249 C49.9504763,92.6726179 50.0594945,57.9685294 48.6449835,57.9685294 C47.2304724,57.9685294 34.4821571,55.7893382 33.0349406,57.9685294 Z" id="Path-2" fill="#FFFFFF"></path>
        <path d="M53.0349406,53.9685294 C51.587724,56.1477206 51.7239968,87.5279269 53.0349406,88.6726179 C54.3458844,89.817309 67.3394906,90.4782318 68.6449835,89.5754249 C69.9504763,88.6726179 70.0594945,53.9685294 68.6449835,53.9685294 C67.2304724,53.9685294 54.4821571,51.7893382 53.0349406,53.9685294 Z" id="Path-2" fill="#FFFFFF"></path>
        <path d="M87.0025991,15.4850428 C87.3782528,8.11331539 85.3773864,4.4274517 81,4.4274517 C76.6226136,4.4274517 73.5110783,7.1930354 71.6653943,12.7242028 C63.0300638,8.89214654 54.6805887,6.97611841 46.6169688,6.97611841 C38.5533488,6.97611841 31.2170703,8.89214654 24.608133,12.7242028 C25.472351,7.1930354 23.7650461,4.4274517 19.4862185,4.4274517 C13.0679771,4.4274517 11.6797947,12.7242028 11.6797947,15.4850428 C11.6797947,18.2458828 6.91753977,45.2030268 6.91753977,53 C6.91753977,60.7969732 2.19280331,70.8139834 13.7342529,87.5424489 C25.2757026,104.270914 42.0119137,102.905918 51.5,102.566645 C60.9880863,102.227372 94.0922913,97.7914528 94.0922913,73.786914" id="Path-4" stroke="#FFFFFF" stroke-width="3"></path>
        <path d="M58,26 C63.9930385,30 68.9930385,30 73,26" id="Path" stroke="#FFFFFF" stroke-width="2"></path>
        <path d="M56,28 C61.9930385,32 66.9930385,32 71,28" id="Path" stroke="#FFFFFF" stroke-width="2"></path>
        <path d="M26,25 C31.9930385,29 36.9930385,29 41,25" id="Path" stroke="#FFFFFF" stroke-width="2"></path>
        <path d="M26,28 C31.9930385,32 36.9930385,32 41,28" id="Path" stroke="#FFFFFF" stroke-width="2"></path>
        <path d="M28,26 C33.9930385,30 38.9930385,30 43,26" id="Path" stroke="#FFFFFF" stroke-width="2"></path>
    </g>
</svg>