<svg width="24px" height="23px" viewBox="0 0 24 23" version="1.1" xmlns="http://www.w3.org/2000/svg" xmlns:xlink="http://www.w3.org/1999/xlink">
    <!-- Generator: Sketch 45.2 (43514) - http://www.bohemiancoding.com/sketch -->
    <desc>Created with Sketch.</desc>
    <defs></defs>
    <g id="お題詳細" stroke="none" stroke-width="1" fill="none" fill-rule="evenodd">
        <g id="iPhone-7" transform="translate(-140.000000, -505.000000)" fill="#FFCA9E">
            <g id="star61" transform="translate(140.000000, 505.000000)">
                <path d="M23.6344719,8.78244686 C23.6344719,8.43259019 23.3699036,8.21519169 22.840071,8.1300773 L15.721619,7.0949541 L12.530961,0.642622309 C12.3515071,0.254995038 12.1196618,0.0612684324 11.8361212,0.0612684324 C11.5525807,0.0612684324 11.3209094,0.254995038 11.1412815,0.642622309 L7.9504494,7.0949541 L0.831649347,8.1300773 C0.302338827,8.21519169 0.0375965381,8.43259019 0.0375965381,8.78244686 C0.0375965381,8.9810471 0.155781952,9.20801879 0.392152779,9.46318788 L5.55401821,14.483196 L4.33456754,21.5736246 C4.31559521,21.7060828 4.30619608,21.8007704 4.30619608,21.8573392 C4.30619608,22.0559394 4.35580262,22.2235573 4.45501571,22.3608891 C4.55422879,22.4980469 4.70304842,22.5664517 4.90164865,22.5664517 C5.07187742,22.5664517 5.26090446,22.5100569 5.46890383,22.396397 L11.8359472,19.0494348 L18.2033386,22.3962229 C18.4019389,22.5097088 18.5909659,22.5664517 18.7704198,22.5664517 C19.1583951,22.5664517 19.3521218,22.330429 19.3521218,21.8576873 C19.3521218,21.7348024 19.3474222,21.6402888 19.337849,21.5737987 L18.1183983,14.4835441 L23.265991,9.463536 C23.511761,9.21741792 23.6344719,8.99044623 23.6344719,8.78244686 L23.6344719,8.78244686 Z M16.1612896,13.8450992 L17.1821401,19.8154643 L11.8359472,16.9932871 L6.47548151,19.8154643 L7.51077877,13.8450992 L3.17133761,9.6332426 L9.15580137,8.7540754 L11.8359472,3.33686681 L14.516093,8.7540754 L20.5009049,9.6332426 L16.1612896,13.8450992 L16.1612896,13.8450992 Z" id="Shape"></path>
            </g>
        </g>
    </g>
</svg>