<svg width="24px" height="23px" viewBox="0 0 24 23" version="1.1" xmlns="http://www.w3.org/2000/svg" xmlns:xlink="http://www.w3.org/1999/xlink">
    <!-- Generator: Sketch 45.2 (43514) - http://www.bohemiancoding.com/sketch -->
    <desc>Created with Sketch.</desc>
    <defs></defs>
    <g id="お題詳細" stroke="none" stroke-width="1" fill="none" fill-rule="evenodd">
        <g id="iPhone-7" transform="translate(-156.000000, -468.000000)" fill="#FFCA9E">
            <g id="star60" transform="translate(156.000000, 468.000000)">
                <path d="M23.8638746,8.86769174 C23.8638746,8.51443926 23.5967384,8.29493063 23.061763,8.2089901 L15.8742174,7.1638197 L12.65259,0.64885978 C12.4713943,0.257470091 12.2372986,0.0618631209 11.9510059,0.0618631209 C11.6647132,0.0618631209 11.4307933,0.257470091 11.2494219,0.64885978 L8.02761868,7.1638197 L0.839721568,8.2089901 C0.305273412,8.29493063 0.0379614606,8.51443926 0.0379614606,8.86769174 C0.0379614606,9.06821964 0.157294015,9.29739439 0.395959123,9.55504022 L5.60792706,14.6237739 L4.37664006,21.7830242 C4.35748358,21.9167681 4.34799322,22.0123747 4.34799322,22.0694926 C4.34799322,22.2700205 4.39808125,22.4392654 4.49825733,22.5779302 C4.59843341,22.7164192 4.74869752,22.785488 4.94922542,22.785488 C5.12110648,22.785488 5.31196827,22.7285458 5.52198653,22.6137827 L11.9508302,19.2343339 L18.3802011,22.6137827 C18.5809047,22.72837 18.7717665,22.785488 18.9527864,22.785488 C19.1441755,22.785488 19.2895186,22.7165949 19.3896947,22.5779302 C19.4896951,22.4394411 19.5397831,22.2700205 19.5397831,22.0694926 C19.5397831,21.9454149 19.5350379,21.849984 19.5253718,21.7830242 L18.293909,14.6237739 L23.4914657,9.55504022 C23.7399727,9.30688475 23.8638746,9.07771001 23.8638746,8.86769174 L23.8638746,8.86769174 Z" id="Shape"></path>
            </g>
        </g>
    </g>
</svg>